# xmcd CD database file
#
# Track frame offsets:
#	150
#	16656
#	31351
#	46535
#	68080
#	92132
#	109955
#	131138
#	146837
#	163283
#	177588
#
# Disc length: 2522 seconds
#
# Revision: 1
# Processed by: cddbd v1.5.2PL0 Copyright (c) Steve Scherf et al.
# Submitted via: CDex 1.51
#
DISCID=9809d80b
DTITLE=Enuff Z'nuff - ?
DYEAR=2004
DGENRE=Hard Rock
TTITLE0=Gorgeous
TTITLE1=Home Tonight
TTITLE2=Help...
TTITLE3=No Place Like Home
TTITLE4=Harleya
TTITLE5=Hang On For Life
TTITLE6=Man With A Woman
TTITLE7=How Are You?
TTITLE8=Joni Woni (Likes To Ride The Pony)
TTITLE9=This Guy
TTITLE10=Stone Cold Crazy
EXTD=YEAR: 2004
EXTT0=
EXTT1=
EXTT2=
EXTT3=
EXTT4=
EXTT5=
EXTT6=
EXTT7=
EXTT8=
EXTT9=
EXTT10=
PLAYORDER=
